<?xml version="1.0" encoding="utf-8"?>
<!-- Generator: Adobe Illustrator 22.0.0, SVG Export Plug-In . SVG Version: 6.00 Build 0)  -->
<svg version="1.1" id="Layer_1" xmlns="http://www.w3.org/2000/svg" xmlns:xlink="http://www.w3.org/1999/xlink" x="0px" y="0px"
	 viewBox="0 0 707.8 727.6" style="enable-background:new 0 0 707.8 727.6;" xml:space="preserve">
<style type="text/css">
	.st0{opacity:0.98;}
	.st1{fill:#070606;}
	.st2{fill:#FFFFFF;}
	.st3{fill:#605A5A;}
</style>
<g>
	<g class="st0">
		<path d="M448.2,399.2c-1.2-2-2.5-4-4-5.8c-1.9-2.4-4.1-4.5-6.5-6.4c-6.3-5.1-14-8.4-22.3-9.4c-2.8,0.2-5.6,0.2-8.3-0.2
			c-3.3-0.5-6.4-1.4-9.3-2.7c-4.6-3.2-9.1-6.7-13.4-10.3c-3.3-2.8-6.6-5.8-9.7-8.9c-7.5-7.4-14.3-15.4-20.4-24
			c-12.2-9.2-21.4-22.2-25.9-37.3l0,0c0.2-2,0.3-4,0.1-6.1c-0.3-3.7-1.4-7.2-3-10.3c-5.2-10.4-16.4-17-28.6-15.9
			c-15.6,1.4-27.1,14.9-26.3,30.4c0,0.4,0,0.8,0.1,1.2c1.5,16,15.6,27.7,31.6,26.2c0.7-0.1,1.5-0.2,2.2-0.3
			c5,5.4,9.6,11.1,13.7,17.2c8.9,7.7,16.6,16.7,22.8,26.8c0.4,0.6,0.8,1.3,1.2,1.9c0,0,0,0,0,0c13,10.3,22.4,25.1,25.8,42.3
			c0,0,0,0,0,0c-1.9,5.6-2.7,11.8-2.1,18.1c0.3,3.3,1,6.6,2,9.6c1.6,4.8,3.9,9.2,6.9,13.1c1,1.3,2.1,2.6,3.2,3.8
			c9,9.4,22.1,14.8,36.1,13.5c4-0.4,7.8-1.3,11.5-2.6c-1.7-1.8-3.4-3.6-5-5.4c-7.6-8.6-14.5-17.9-20.5-27.9
			c-0.1-0.7-0.2-1.4-0.3-2.1c-0.2-2.1-0.2-4.2-0.1-6.2c5.5-4.8,11.4-9.3,17.6-13.4c0,0,0,0,0,0c1.3,0.2,2.6,0.4,3.8,0.7
			c10.3,10.1,19.4,21.4,27,33.8c0.2,0.2,0.3,0.5,0.5,0.7c4.3-7.6,6.4-16.5,5.5-25.8C453.4,410.8,451.3,404.7,448.2,399.2z
			 M300.4,304.5c-7.3,0.7-13.7-4.7-14.4-12s4.7-13.7,12-14.4c7.3-0.7,13.7,4.7,14.4,12C313,297.3,307.6,303.8,300.4,304.5z"/>
	</g>
	<g class="st0">
		<path d="M326.1,454.7c1.8-1.5,3.5-3.1,5-4.9c2-2.3,3.8-4.8,5.3-7.4c4-7,6.1-15.1,5.7-23.5c-0.7-2.7-1-5.5-1.1-8.2
			c-0.1-3.3,0.4-6.5,1.2-9.6c2.5-5.1,5.2-10,8.1-14.9c2.3-3.7,4.7-7.4,7.2-11c6.1-8.5,12.9-16.5,20.4-23.9
			c7.1-13.5,18.5-24.7,32.7-31.5l0,0c2-0.1,4-0.4,6-0.9c3.6-0.9,6.9-2.5,9.7-4.6c9.4-6.8,14.2-18.9,11.1-30.8
			c-3.9-15.1-19.1-24.4-34.2-21.1c-0.4,0.1-0.8,0.2-1.2,0.3c-15.5,4-24.8,19.8-20.8,35.4c0.2,0.7,0.4,1.4,0.6,2.1
			c-4.5,5.8-9.5,11.2-14.8,16.3c-6.2,10-13.9,19-22.8,26.8c-0.6,0.5-1.1,1-1.7,1.5c0,0,0,0,0,0c-8.1,14.5-21.2,26.1-37.6,32.2
			c0,0,0,0,0,0c-5.9-1-12-0.7-18.2,0.8c-3.3,0.8-6.3,2-9.2,3.5c-4.5,2.3-8.5,5.3-11.9,8.9c-1.1,1.2-2.2,2.5-3.2,3.8
			c-7.8,10.4-11.1,24.2-7.5,37.8c1,3.9,2.5,7.5,4.4,10.9c1.5-2,3-3.9,4.6-5.8c7.3-8.9,15.4-17.2,24.2-24.6c0.7-0.2,1.4-0.4,2-0.6
			c2.1-0.5,4.1-0.9,6.2-1.1c5.6,4.7,11,9.8,16,15.2c0,0,0,0,0,0c0,1.3,0,2.6-0.1,3.9c-8.3,11.8-18,22.5-29,32
			c-0.2,0.2-0.4,0.4-0.6,0.6c8.2,3,17.3,3.6,26.3,1.3C315.4,461.7,321.2,458.7,326.1,454.7z M396,293.7c-1.8-7.1,2.4-14.3,9.5-16.1
			c7.1-1.8,14.3,2.4,16.1,9.5c1.8,7.1-2.4,14.3-9.5,16.1C405.1,305,397.9,300.8,396,293.7z"/>
	</g>
</g>
</svg>
