<svg xmlns="http://www.w3.org/2000/svg" viewBox="0 0 1319 1468"><defs><style>.a{opacity:0.98;}.b{fill:#fff;}</style></defs><title>hawk_logotransparent</title><g class="a"><path class="b" d="M641.56,1086.79a21.86,21.86,0,0,1-13.09-4.4,21,21,0,0,1-1.87-1.57,21.86,21.86,0,0,1-4.36-5.82,22.24,22.24,0,0,1-1.71-4.52,21.56,21.56,0,0,1-.41-8.9l0-.14-.06-.13a36.18,36.18,0,0,0-16.15-19l0-.18h-.17l-.59-.7a58.84,58.84,0,0,0-13.48-11.54,73.63,73.63,0,0,0-8.17-7.45l-.21-.17-.26.09c-.34.11-.68.22-1,.31a14.45,14.45,0,0,1-3.52.44,14,14,0,0,1-13.6-10.55c0-.19-.09-.38-.13-.57A14,14,0,0,1,573,995.4a14.37,14.37,0,0,1,3.51-.44,14,14,0,0,1,13.61,10.55,13.82,13.82,0,0,1,.43,2.93v.08l0,.08a36.71,36.71,0,0,0,16,16.66,89.66,89.66,0,0,0,12,10.26c1.75,1.24,3.61,2.47,5.54,3.65,2.46,1.49,5,2.86,7.49,4.08a18.22,18.22,0,0,0,4.79.65h.27a18.26,18.26,0,0,0,4.17-.54h.76a21.81,21.81,0,0,1,14.36,5.44,20.76,20.76,0,0,1,2.4,2.47,21.73,21.73,0,0,1,3.9,20.5,89.68,89.68,0,0,0-15.87-14.34l-.11-.08h-.13c-.49,0-1-.07-1.52-.07h-.5l-.14,0-.19.1a86.14,86.14,0,0,0-7.68,8.08l-.13.16,0,.2a17.52,17.52,0,0,0,.54,3.17q.13.54.3,1l0,.1.06.07a95.21,95.21,0,0,0,12.42,12.25c.75.61,1.51,1.22,2.32,1.84a22.19,22.19,0,0,1-4.67,1.79A21.73,21.73,0,0,1,641.56,1086.79Zm-65.25-84.6a6.82,6.82,0,0,0-1.79.23,7.14,7.14,0,0,0-5.14,8.69,7.15,7.15,0,1,0,6.93-8.92Z"/><path d="M576.49,995.46a13.56,13.56,0,0,1,13.13,10.18,14.11,14.11,0,0,1,.41,2.82v.12l0,.12,0,.08,0,.07a37.29,37.29,0,0,0,16.11,16.82,90.29,90.29,0,0,0,12,10.25c1.76,1.26,3.63,2.5,5.57,3.67,2.48,1.51,5,2.89,7.54,4.11l.08,0,.1,0a18.77,18.77,0,0,0,4.82.64h.28a18.86,18.86,0,0,0,4.23-.54h.69a21.39,21.39,0,0,1,14,5.31,21.5,21.5,0,0,1,2.35,2.42,21.29,21.29,0,0,1,4.06,19.18A90.12,90.12,0,0,0,646.66,1057l-.22-.15-.27,0c-.5,0-1-.07-1.56-.07H644l-.11,0-.25.06-.18.18a84.54,84.54,0,0,0-7.72,8.12l-.27.31,0,.41a19.2,19.2,0,0,0,.55,3.25c.1.37.2.73.31,1.09l.06.19.13.15a95.43,95.43,0,0,0,12.48,12.3c.56.46,1.12.91,1.71,1.37a22.6,22.6,0,0,1-3.87,1.4,21.23,21.23,0,0,1-18.1-3.63,22.94,22.94,0,0,1-1.81-1.53,21.29,21.29,0,0,1-4.27-5.69,22.36,22.36,0,0,1-1.67-4.41,21.11,21.11,0,0,1-.39-8.7l0-.18,0-.18v-.08l0-.07a36.72,36.72,0,0,0-16.24-19.22l-.1-.34H604l-.44-.51A59,59,0,0,0,590,1029.47a75.75,75.75,0,0,0-8.18-7.46l-.43-.33-.52.17a8.51,8.51,0,0,1-1,.3,13.56,13.56,0,0,1-16.52-9.75c0-.17-.09-.36-.12-.55a13.56,13.56,0,0,1,13.26-16.39M576.3,1017a7.75,7.75,0,0,0,1.91-.24,7.65,7.65,0,1,0-1.91.24m.19-22.51a14.76,14.76,0,0,0-3.64.46,14.55,14.55,0,0,0-10.6,17.14c0,.2.08.4.13.59a14.57,14.57,0,0,0,14.09,10.93,14.78,14.78,0,0,0,3.65-.46c.36-.09.71-.2,1.06-.32a72.82,72.82,0,0,1,8.16,7.45,58.11,58.11,0,0,1,13.42,11.48l.73.86h0a35.64,35.64,0,0,1,16.14,18.89h0a22,22,0,0,0,.42,9.11,22.73,22.73,0,0,0,1.74,4.61,22.26,22.26,0,0,0,19.77,12.07,22.29,22.29,0,0,0,11-2.91c-1-.75-2-1.51-2.92-2.3a92.87,92.87,0,0,1-12.35-12.18c-.11-.33-.21-.68-.3-1a19.58,19.58,0,0,1-.53-3.09,86.28,86.28,0,0,1,7.63-8h.5a14.46,14.46,0,0,1,1.47.07,88.83,88.83,0,0,1,16.06,14.59c.1.1.19.21.29.32a22.27,22.27,0,0,0-3.7-21.8,22.64,22.64,0,0,0-2.46-2.53,22.4,22.4,0,0,0-14.69-5.56h-.83a17.64,17.64,0,0,1-4.11.54h-.26a17.85,17.85,0,0,1-4.57-.6c-2.55-1.24-5-2.6-7.45-4.06q-2.82-1.71-5.51-3.63a89.27,89.27,0,0,1-12-10.25A36.56,36.56,0,0,1,591,1008.42h0a14.56,14.56,0,0,0-14.54-14ZM576.3,1016a6.64,6.64,0,0,1-1.66-13.07,6.88,6.88,0,0,1,1.67-.21,6.64,6.64,0,0,1,1.65,13.07,6.4,6.4,0,0,1-1.66.21Z"/></g><g class="a"><path class="b" d="M622.32,1019.26l-.15,0a18.6,18.6,0,0,0-3.27-.68c-.6-.07-1.14-.11-1.63-.12a36.13,36.13,0,0,1-4.19-6.14c-.15-.26-.28-.51-.41-.76s-.36-.73-.53-1.1a37.66,37.66,0,0,1-1.55-3.82l0-.07a36.59,36.59,0,0,1-1.89-11.23v-.53l-.53,0c-.32,0-.64.06-1,.1-2,.19-4,.46-6,.8l-.4.07,0,.4c0,1.37-.08,2.78-.09,4.32,0,.46,0,1,0,1.42,0,2.11.05,4.25.14,6.36a23,23,0,0,1-2.08-1.6l-.18-.17a20.07,20.07,0,0,1-2.63-2.74c.09-1.53.24-3.07.44-4.57.08-.65.17-1.28.27-1.91.19-1.26.44-2.52.71-3.76a68,68,0,0,1,2.36-8.27c.89-.26,1.77-.5,2.67-.72,1.7-.45,3.5-.84,5.35-1.18l.37-.06,0-.38c.13-1.25.3-2.56.5-4a86.16,86.16,0,0,1,2.39-11c.7-.07,1.43-.11,2.15-.11h.48l.68,0a21.37,21.37,0,0,1,5.1.88,21,21,0,0,1,3,1.13,21.72,21.72,0,0,1,3.26,1.85l.14.1H626a11.56,11.56,0,0,0,3.58-.77,12.27,12.27,0,0,0,1.85-.92,11.6,11.6,0,0,0,3.94-4l.07-.12v-.24a30.48,30.48,0,0,1-.45-3.55l0-.47h0c0-.63-.06-1.23-.06-1.81,0-.13,0-.25,0-.38a32.69,32.69,0,0,1,.47-5.17l0-.24a31.17,31.17,0,0,1,1.06-4.18v0c.38-.93.76-1.93,1.17-3.06l0-.07v0c.19-.54.39-1.09.57-1.64l0-.09.06-.06v-.14a81.69,81.69,0,0,0,4.11-23c0-1,0-1.94,0-2.92v-.11c0-.61,0-1.25,0-1.86a82.09,82.09,0,0,0-1.18-12.13l-.05-.3c0-.18-.07-.36-.11-.54-.12-.77-.28-1.56-.46-2.34a81,81,0,0,0-2.87-10.19,52,52,0,0,1-.31-5.53c0-.29,0-.59,0-.88h0v-.14a36.93,36.93,0,0,0,2.35-13c0-.33,0-.66,0-1l.72-2-.77.76a36.41,36.41,0,0,0-.7-5.18,35.93,35.93,0,0,0-1.11-4.16l-.16-.47-.48.16a54.18,54.18,0,0,0-13.84,7.07c-.91.64-1.82,1.33-2.7,2a55.7,55.7,0,0,0-8.17,8.08,73.77,73.77,0,0,0-13.51,13.9,3.76,3.76,0,0,0-.29.28l-.09.09-.56.6c-.25.27-.44.48-.61.7s-.31.35-.47.55l-.14.16c-.52.64-1,1.29-1.46,1.93a32.54,32.54,0,0,0-4.74,10.07l-.21.46-.2.5.16.05a32.93,32.93,0,0,0-.91,7.65c0,1.1.06,2.19.17,3.29-.52-.81-1-1.65-1.51-2.52l-.21-.38-.06-.12a42.73,42.73,0,0,1-3.9-10.16l-.2-.81-.62.56c-1.51,1.35-2.9,2.64-4.24,3.92l-.22.2-.28.26,0,.25a18,18,0,0,0,.7,3.62l0,.08a18.15,18.15,0,0,0,3.28,6.24l.1.12.16.05c.4.1.81.2,1.24.28l-.23.25a13.58,13.58,0,0,1-1.07,1,11,11,0,0,1-1,.82l-1.19-.29-.79-.22a50.71,50.71,0,0,1-8.18-3,67.53,67.53,0,0,1-2.8-10.41V907l-.06,0a22.93,22.93,0,0,1-3-13.89V893l0-.14c-.18-.55-.35-1.09-.5-1.65a87.15,87.15,0,0,1,1.36-53.77,84.71,84.71,0,0,1,7.07-15.13,86.19,86.19,0,0,1,22-24.91,17,17,0,0,0,4.92-12A17.13,17.13,0,0,0,597,774.81a17,17,0,0,0-4.82-4.12,16.68,16.68,0,0,0-5-1.9,143.19,143.19,0,0,0-48.44-8.36c-4,0-8,.17-12,.5a144.56,144.56,0,0,0-29,5.43h-.13l-.07.07c-4.05,1.21-8.07,2.6-11.95,4.14l-2.16.64-1.63.31-.15,0c-.48.09-.95.17-1.43.24a3.26,3.26,0,0,1-.34,0c-.41.06-.76.11-1.09.14s-.89.12-1.32.15-1,.1-1.52.14l-1.47.09c-.47,0-.94,0-1.42.06s-1.19,0-1.79,0l-1.68,0h-.18l-.4,0-1.48-.07-1.81-.14-.62-.06-1.57-.17-.46-.07c-.58-.07-1.14-.16-1.7-.25l-.4-.08c-.43-.06-.83-.14-1.22-.22l-.49-.09-.11,0-.53-.1-.87-.19c-.19,0-.36-.08-.52-.13l-.4-.09-1-.26-.75-.2-1.06-.3c-.66-.2-1.34-.41-2-.64s-1.35-.47-2-.72c-.47-.17-1-.36-1.41-.55h0l-.45-.18,0,0-.13,0c-.6-.24-1.2-.51-1.78-.77h0l-.07,0a1,1,0,0,0-.26-.11l-1.36-.66-.45-.23-.12-.05c-.49-.25-1-.54-1.57-.84s-1.24-.68-1.83-1-1.2-.72-1.78-1.1c-1-.62-1.95-1.28-3-2a61.13,61.13,0,0,1-17.23-19.34,75.6,75.6,0,0,1-16.31-33.9l0,0,0,0a84,84,0,0,1-7.41-34.65c0-.24,0-.48,0-.72a82.59,82.59,0,0,1,.54-9,59.53,59.53,0,0,1,3.45-13.39c0,.37,0,.74,0,1.1a69.94,69.94,0,0,0,3.64,22.36,68.91,68.91,0,0,0,4.8,11.1,46.21,46.21,0,0,0,5,10.48l.07.12c.39.6.79,1.19,1.21,1.76s.7,1,1.06,1.43c.12.16.24.31.37.46a.91.91,0,0,0,.11.16c.34.42.65.79,1,1.17.54.63,1.09,1.25,1.66,1.85s.91.93,1.37,1.37.87.83,1.31,1.23l.18.15.26.24c.36.31.73.63,1.12.94l.08.06c.3.25.52.43.75.6s.54.42.82.64l.11.07.83.62.77.53,2.09,1.44-1.19-2c-.77-1.29-1.5-2.61-2.22-4a67.11,67.11,0,0,1-4.23-50.09l0-.08v-.09c0-.21,0-.44,0-.65a48.34,48.34,0,0,1,1.39-11.54,49.82,49.82,0,0,1,12.57-22.64,69.62,69.62,0,0,0-3.13,12.55l-.1.67a71.49,71.49,0,0,0-.73,10.1,70,70,0,0,0,13.12,41l1.18,1.66-.28-2a106.36,106.36,0,0,1-1-14.59,104.11,104.11,0,0,1,17-57.17,102.08,102.08,0,0,1,6-8.28,107,107,0,0,1,8.28-9.14A63.23,63.23,0,0,0,466,608a62.18,62.18,0,0,0-2.93,9.91,63.74,63.74,0,0,0,.94,30l.29,1,.61-.89a105,105,0,0,1,41-35.27c1.13-.55,2.19-1,3.22-1.48,2.51-1.11,5.09-2.12,7.7-3-1.52,1.33-2.94,2.63-4.29,3.95-1.1,1.08-2.11,2.1-3.08,3.13-2.05,2.16-4,4.38-5.75,6.59a108.73,108.73,0,0,0-15.25,25.32l.88.47a87,87,0,0,1,20.78-22.54c1.69-1.29,3.44-2.52,5.19-3.66,1.94-1.28,4-2.5,6.1-3.64l.12-.06a86.86,86.86,0,0,1,35-10.14l2.81-.15-.78.45a151.55,151.55,0,0,0-14.71,9.67c-3.82,2.83-7.6,5.93-11.25,9.2-2.61,2.35-5.15,4.8-7.54,7.28l-1.33,1.38,1.84-.56c3.63-1.1,7.39-2.11,11.17-3,5-1.15,10.09-2.1,15.14-2.8,5.49-.78,11.16-1.29,16.84-1.53l2.51-.1c-.8.42-1.58.85-2.35,1.29a103.44,103.44,0,0,0-12.64,8.3,105,105,0,0,0-10.75,9.43c-1.33,1.33-2.56,2.64-3.76,4l-2,2.25,2.62-1.48c1.43-.81,2.91-1.57,4.41-2.26a66.94,66.94,0,0,1,12.59-4.49,68.26,68.26,0,0,1,11-1.83c1.87-.16,3.74-.25,5.57-.26a36,36,0,0,0-5.88,2,35.44,35.44,0,0,0-9,5.77,35.07,35.07,0,0,0-8.46,10.92l-.73,1.46,1.42-.8a101.33,101.33,0,0,1,9.68-4.81c2.18-.94,4.38-1.8,6.54-2.56a104,104,0,0,1,34.48-6h.67l.47.21a166.13,166.13,0,0,0-14.82,11l-1.11.92,1.44,0c1.24,0,2.49,0,3.73,0a174.67,174.67,0,0,1,21.22,1.29c3.51.41,7.07.95,10.58,1.6a172,172,0,0,1,19.9,4.9c1,.31,2,.62,3,.95s2.1.71,3.15,1.07,2.09.75,3.13,1.14l.49.18.09,0h0l.24.1h0l.34.14c.68.25,1.34.51,2,.78a84.12,84.12,0,0,0,34.75,15.84l.59.12V688a131.66,131.66,0,0,1,14.55-60.09l.54-.25.21-.09.06-.23c.23-.76.46-1.53.7-2.3l0-.08a202,202,0,0,1,9.18-24.19c1.11-2.44,2.32-5,3.6-7.49,2.55-5.06,5.34-10.07,8.28-14.88l0-.07c.76-1.24,1.6-2.56,2.62-4.15l.53-.23,0-.28a43.63,43.63,0,0,1,10.12-22.76l.07-.07,0-.09a45.19,45.19,0,0,1,9.23-15.42c.48-.53,1-1,1.48-1.55.43,1.11.8,2.19,1.13,3.27l-.28.27.51.35,1.19,1.24-.34-1.71c1.17-2.75,2.18-5.4,3.12-8.08l0-.09c.52-1.46,1-2.93,1.35-4.06a143.11,143.11,0,0,0,6.66-43.32,146.66,146.66,0,0,0-.84-15.68,103.46,103.46,0,0,0,2.07-20.59,101.87,101.87,0,0,0-5.36-32.75,99.34,99.34,0,0,1,28,62.6l0,.23c.15,2.12.22,4.29.22,6.65a99.5,99.5,0,0,1-5.18,31.81l.92.38a141.58,141.58,0,0,0,14.51-62.84c0-1.65,0-3.45-.09-5.49.39-1.77.75-3.5,1.06-5.14A176.58,176.58,0,0,0,804.92,383,145.53,145.53,0,0,1,822,441.61c.07.86.12,1.71.17,2.56.16,2.77.25,5.66.25,8.59a147.52,147.52,0,0,1-11.17,56.38l-1.35,3.29,2.21-2.79a148.41,148.41,0,0,0,32.05-86.89,32.21,32.21,0,0,0,2.2-10.23,79.16,79.16,0,0,0,5.54-25.44,127.13,127.13,0,0,1-1.5,85.87l-.7,1.84,1.49-1.28A123.89,123.89,0,0,0,888.1,419a112.56,112.56,0,0,1,1,15.13,111,111,0,0,1-46.92,90.49l.5.86a119.94,119.94,0,0,0,68.16-100.63,130.16,130.16,0,0,1-41.64,110.67l-1.88,1.71,2.39-.87c2-.72,3.84-1.49,5.6-2.3A75.78,75.78,0,0,0,902.45,513l.06-.09a75.27,75.27,0,0,1,6.83-12.2c1.11-1.64,2.21-3.12,3.36-4.55l.18-.09v-.15a79.29,79.29,0,0,1,9.24-9.74A80.87,80.87,0,0,1,916,514.4a82,82,0,0,1-21.15,29.77l-.16.15h0c-1.54,1.36-3.13,2.67-4.76,3.9-1.38,1.06-2.83,2.1-4.3,3.09a82.18,82.18,0,0,1-16,8.25l-3.51,1.34,3.74-.38a76.34,76.34,0,0,0,21-5.2c.86-.34,1.77-.73,2.8-1.19.72-.32,1.43-.66,2.13-1a77.7,77.7,0,0,0,25.91-20.51c.55-.66,1.08-1.33,1.6-2-.61,1.74-1.27,3.47-2,5.16A110.4,110.4,0,0,1,901,567.85c-.51.58-1,1.14-1.57,1.71L899,570c-1.14,1.2-2.36,2.41-3.71,3.7a110.38,110.38,0,0,1-27,19l-1.94,1,2.17,0a71.12,71.12,0,0,0,33.1-8.56c1.14-.61,2.28-1.27,3.4-2l.15-.09c.57-.36,1.15-.73,1.73-1.12a71,71,0,0,0,7.83-6,74.85,74.85,0,0,1-4.49,8.45c-.75,1.24-1.58,2.49-2.45,3.74a77.3,77.3,0,0,1-4.91,6.35c-1.23,1.42-2.46,2.75-3.67,4l-.15.15h0a77.84,77.84,0,0,1-31.7,19.26c-2.06.65-4.14,1.21-6.19,1.66l-2.38.53,2.39.45a37.8,37.8,0,0,0,7,.65,39,39,0,0,0,6.11-.49,37.11,37.11,0,0,0,21-11.23,59.29,59.29,0,0,1-9.81,14.92q-.68.76-1.38,1.5a60.55,60.55,0,0,1-19.73,13.78l-.09,0-.07.07A98.87,98.87,0,0,0,833.31,695v.21a60.51,60.51,0,0,1-1.51,13.49c-.24,1.08-.52,2.2-.87,3.41l-.11.37a58.71,58.71,0,0,1-4.1,10.29l0,.06v.07a84.14,84.14,0,0,1-11.55,28c-.08.13-.16.26-.25.39A85.08,85.08,0,0,1,798.38,770a83.59,83.59,0,0,1-14.76,10l-.59.31.47.48A55,55,0,0,0,835,795.76c.6,0,1.18,0,1.77,0A41.76,41.76,0,0,0,850,793.7h.12l.11-.09.58-.39a43.22,43.22,0,0,1,9.32-4.48h.42v-.14a45,45,0,0,1,4.38-1.19l.87-.18a44.08,44.08,0,0,1,16.24-.09,9.05,9.05,0,0,1,.61,3.29,8.81,8.81,0,0,1-2.77,6.48l-.2.19a18.23,18.23,0,0,0-5.38,1.42l-.11.06-.08.1-.6.77A53.31,53.31,0,0,1,836,819.56h-.85l.43.75c.28.48.53,1,.79,1.46.63,1.22,1.22,2.51,1.75,3.84a44.46,44.46,0,0,1,2.49,8.73,54.68,54.68,0,0,1-8.47,9.21,52.2,52.2,0,0,1-5.29,4,53.3,53.3,0,0,1-8.27,4.54l-.1,0-.08.08a73,73,0,0,1-13.68,12,71.84,71.84,0,0,1-9,5.18l-1.46.69a72,72,0,0,1-26.85,6.4c-1,.06-2,.08-3.2.08-2.18,0-4.4-.1-6.6-.3-1-.79-1.82-1.56-2.61-2.34a37.82,37.82,0,0,1-9.73-16.1l-.47-1.59-.48,1.59a31,31,0,0,0-1.21,6.11c-.1,1.05-.15,2-.15,3a31,31,0,0,0,.92,7.51c.1.43.22.86.34,1.29l0,.09.06.08a27.08,27.08,0,0,1,4.51,9.19c.14.52.27,1,.38,1.59a26.93,26.93,0,0,1,.51,5.25,26.12,26.12,0,0,1-4.41,14.64l-.1.1v.13a32.93,32.93,0,0,1-2.76,6.27c-.17-.49-.37-1-.58-1.41a5.23,5.23,0,0,0-.29-.58,17.21,17.21,0,0,0-9.21-8.26,16.68,16.68,0,0,0-5.55-1.12,25.4,25.4,0,0,0-12.29-9l-.3-.1-.22.22c-.13.13-.26.26-.38.4a17.89,17.89,0,0,0-2.75,3.82,18.31,18.31,0,0,0-1.44,3.56l-.06.22.12.19c.28.43.56.84.86,1.26l.15.21h0a42.45,42.45,0,0,0,2.72,3.47c.32.39.68.78,1,1.18.86.91,1.5,1.57,2.13,2.16a46.57,46.57,0,0,0,8.57,6.51,58.46,58.46,0,0,1,3.24,5.08c.72,1.25,1.42,2.61,2.09,4l.29.63c.51,1.13,1,2.31,1.44,3.49a22.52,22.52,0,0,1-1.64,5.47,2,2,0,0,1-.16.33c-.12.27-.22.49-.33.69a19.89,19.89,0,0,1-1.91,3.12,22.41,22.41,0,0,1-4.45,4.62l.27-.34a21.48,21.48,0,0,0,3.75-7.11c.09-.3.19-.61.27-.92.18-.71.32-1.37.42-2l0-.24-.17-.18c-.39-.4-.78-.79-1.18-1.17a39.61,39.61,0,0,0-3.41-3c-.31-.25-.63-.49-1-.72-.5-.38-1-.75-1.55-1.1l-.13-.08h-.15l-1,0a21.55,21.55,0,0,1-8.9-1.89,14.18,14.18,0,0,1-1.49-.72l-.11-.06h0a21.46,21.46,0,0,1-5-3.73l-.15-.15h0s-.37-.48-.37-.48l-.4.41a.31.31,0,0,1-.09.07,25.43,25.43,0,0,1-6.45,3.35c-.46.17-.89.3-1.35.43l-.18.05a24.58,24.58,0,0,1-4.79.87,22,22,0,0,1-2.21.1h-.36c-.56,0-1.08,0-1.6-.07l-.32,0,0,0h0a14.36,14.36,0,0,0-3.57-2l-.18-.07-.18.06-.29.12c-.57.23-1.15.49-1.72.75l-.11,0a41.67,41.67,0,0,0-11.71,8.24l-.18.18,0,.26a15,15,0,0,0,6.46,9.83,13.09,13.09,0,0,1-4.92-1.72l-.12-.07a12.85,12.85,0,0,1-1.81-1.34,13.09,13.09,0,0,1-2.39-2.75,13.38,13.38,0,0,1-1.72-4l0-.21c-.08-.38-.16-.77-.21-1.18l-.09-.74-.65.37a30.54,30.54,0,0,0-15,20.3,30.08,30.08,0,0,0-.7,6.46,28.87,28.87,0,0,0,.18,3.2,29.48,29.48,0,0,0,1.23,6l0,.11.09.09c.53.56,1.07,1.09,1.63,1.62a43.09,43.09,0,0,0,4.51,3.68c1,.71,2,1.37,3,2l.12.07h0l.22.12a40.85,40.85,0,0,0,7.59,3.36l1.19.37.43.12a17.27,17.27,0,0,1,1.55,4.21l0,.12a19.29,19.29,0,0,1,.39,2.76c0,.36,0,.72,0,1.09v.2a17.09,17.09,0,0,1-.37,3.45l0,0v0c-.08.37-.2.83-.33,1.28a18.38,18.38,0,0,1-1.38,3.37,18,18,0,0,1-3.81,4.82,15.34,15.34,0,0,0,2.56-5.84,14.29,14.29,0,0,0,.35-3.26,14.13,14.13,0,0,0-.29-2.95l0-.12-.07-.09a39,39,0,0,1-2.82-4l-.08-.14-.64-.26-.16,0a36.34,36.34,0,0,0-7.9,2.92l-.13.06-.12.06-1.06.58c-1.06,0-2.14-.13-3.19-.24-.39-.64-.81-1.28-1.26-2a45.74,45.74,0,0,0-4.63-5.72l-.29-.29-.34.22a37.12,37.12,0,0,0-6.12,4.84l-.37-.19-.47,1.05a33,33,0,0,0-2.71,3.17l-.22.13-.17.11-.1.07a22.55,22.55,0,0,0-7.2,7.84,21.2,21.2,0,0,0-1.8,4.27c-.17.54-.29,1-.39,1.43a45.53,45.53,0,0,0-4.37,2.68h-.28l-.07.43a63.54,63.54,0,0,0-.59,7.93c0,.33,0,.68,0,1,0,1.06,0,2,.08,3v.28l.24.13c1.36.75,2.75,1.43,4.13,2a.5.5,0,0,1,.28.32.46.46,0,0,1-.08.4A.49.49,0,0,1,622.32,1019.26Z"/><path d="M805.8,385.72a145.05,145.05,0,0,1,15.74,55.93c.07.86.12,1.7.17,2.55.16,2.76.25,5.64.25,8.56A147,147,0,0,1,810.83,509l-2.71,6.57,4.42-5.57a149,149,0,0,0,32.16-87.1,32.77,32.77,0,0,0,2.2-10.22,79.87,79.87,0,0,0,5.37-23,126.52,126.52,0,0,1-2.3,83.11l-1.4,3.67,3-2.56a124.43,124.43,0,0,0,36.31-52.69,112.08,112.08,0,0,1,.76,12.95,110.51,110.51,0,0,1-46.71,90.09l1,1.72a120.55,120.55,0,0,0,68-95.36c.19,2.94.3,5.89.3,8.83a129.23,129.23,0,0,1-42.3,95.74l-3.75,3.42,4.77-1.74c2-.72,3.87-1.5,5.63-2.32a76.21,76.21,0,0,0,27.3-21.23l0,0,0,0,.05-.07,0-.08A75.14,75.14,0,0,1,909.75,501c1.09-1.6,2.16-3.05,3.28-4.44l.37-.2v-.27a79,79,0,0,1,8.17-8.73,80.37,80.37,0,0,1-6,26.87,81.58,81.58,0,0,1-21,29.59l-.31.28c-1.48,1.31-3,2.57-4.58,3.76-1.38,1-2.82,2.08-4.28,3.06a81.45,81.45,0,0,1-15.91,8.2l-7,2.68,7.49-.75A76.57,76.57,0,0,0,891,555.79c.87-.34,1.79-.73,2.83-1.2.87-.39,1.53-.71,2.13-1a78.19,78.19,0,0,0,25.76-20.24c-.29.75-.59,1.49-.9,2.23a109.81,109.81,0,0,1-20.21,31.95c-.46.53-1,1.08-1.59,1.72a5.92,5.92,0,0,1-.41.45c-1.14,1.2-2.35,2.41-3.7,3.69a110.1,110.1,0,0,1-26.84,18.9l-3.88,1.94,4.34-.05a71.61,71.61,0,0,0,33.33-8.62c1.12-.6,2.26-1.26,3.39-2a.87.87,0,0,0,.18-.11c.49-.3,1.12-.7,1.74-1.12a70.87,70.87,0,0,0,6.12-4.51c-1.06,2.17-2.23,4.28-3.48,6.31-.75,1.23-1.57,2.48-2.43,3.71a74.7,74.7,0,0,1-4.88,6.31c-1.22,1.42-2.45,2.74-3.64,3.93l-.3.31h0a77.34,77.34,0,0,1-31.35,19c-2,.64-4.11,1.19-6.15,1.65l-4.75,1,4.78.9a37.94,37.94,0,0,0,7.06.66,39,39,0,0,0,6.19-.5,37.51,37.51,0,0,0,19.2-9.31,59.21,59.21,0,0,1-8.45,12.18c-.43.49-.88,1-1.36,1.48A60,60,0,0,1,864.2,639.2l-.19.09-.12.12a99.38,99.38,0,0,0-31.07,55.53v.3a59.69,59.69,0,0,1-1.51,13.39c-.23,1.08-.52,2.18-.87,3.41a.5.5,0,0,0,0,.13,1,1,0,0,0,0,.18,58.51,58.51,0,0,1-4.08,10.23l-.06.11,0,.13a83.81,83.81,0,0,1-11.49,27.89l-.24.38a84.73,84.73,0,0,1-16.39,18.56,83.74,83.74,0,0,1-14.68,10l-1.18.62.94,1a55.24,55.24,0,0,0,39.42,16.49,55.54,55.54,0,0,0,12.51-1.41l1.72,0h.09a42.46,42.46,0,0,0,13.24-2.1h.27l.2-.21.51-.33a43.09,43.09,0,0,1,9.15-4.41h.84V789c1.32-.42,2.65-.77,4-1.06l.86-.18a44,44,0,0,1,8.27-.79,43.51,43.51,0,0,1,7.51.65,8.67,8.67,0,0,1,.49,2.85,8.36,8.36,0,0,1-2.64,6.14l-.06,0a18.55,18.55,0,0,0-5.36,1.45l-.23.1-.16.2c-.19.26-.39.51-.6.77A52.82,52.82,0,0,1,836,819.06h-1.7l.86,1.5c.27.48.52.95.78,1.44.62,1.21,1.2,2.48,1.73,3.79a44.66,44.66,0,0,1,2.42,8.43,53.93,53.93,0,0,1-8.27,9,54.79,54.79,0,0,1-13.44,8.48l-.2.08-.14.17a72.69,72.69,0,0,1-13.59,11.86,69.67,69.67,0,0,1-9,5.15c-.48.24-1,.46-1.44.68a69.44,69.44,0,0,1-7.57,2.94,71.45,71.45,0,0,1-19.1,3.42c-1,.06-2,.08-3.16.08-2.12,0-4.27-.09-6.41-.29-.9-.74-1.71-1.47-2.47-2.21a37.3,37.3,0,0,1-9.59-15.88l-.94-3.17-1,3.16a31.43,31.43,0,0,0-1.23,6.22v0h0c-.1,1-.14,2-.14,3a31.73,31.73,0,0,0,.92,7.62c.11.45.23.89.35,1.32l.06.18.11.15a24.83,24.83,0,0,1,2.76,4.53,25.4,25.4,0,0,1,1.67,4.49c.15.57.27,1.08.36,1.56a26,26,0,0,1-.61,12.75,25.56,25.56,0,0,1-3.19,6.74l-.2.21v.26a33.18,33.18,0,0,1-2.19,5.15l-.18-.41c-.09-.21-.2-.42-.3-.61a17.75,17.75,0,0,0-9.49-8.52,17.29,17.29,0,0,0-5.47-1.14,25.89,25.89,0,0,0-12.39-9l-.59-.21-.44.44-.46.48a18.79,18.79,0,0,0-2.76,3.86,18.54,18.54,0,0,0-1.48,3.67l-.12.43.24.38c.26.4.54.82.87,1.28l.3.41c.82,1.15,1.7,2.26,2.6,3.29.35.43.72.84,1.1,1.26.82.86,1.47,1.52,2.1,2.13a47.93,47.93,0,0,0,8.57,6.53,57.89,57.89,0,0,1,3.16,5c.71,1.24,1.4,2.59,2.07,4l.14.3.14.3c.5,1.1,1,2.22,1.38,3.35a21.52,21.52,0,0,1-1.6,5.26,2.56,2.56,0,0,1-.11.24l0,0,0,0c-.1.22-.19.42-.31.64a20,20,0,0,1-1.86,3c-.35.49-.73,1-1.13,1.43A21.78,21.78,0,0,0,728,936c.09-.3.19-.63.27-1a20.16,20.16,0,0,0,.43-2.07l.08-.49-.34-.35c-.46-.48-.84-.86-1.19-1.19a42.47,42.47,0,0,0-3.45-3c-.32-.25-.64-.49-.95-.71-.51-.39-1.05-.77-1.59-1.12l-.26-.17h-.35l-1,0a21.2,21.2,0,0,1-8.72-1.85c-.45-.19-.9-.41-1.44-.7l-.23-.11a21.78,21.78,0,0,1-4.77-3.59l-.15-.15-.63-.92-.81.82-.07,0-.07,0a24.28,24.28,0,0,1-6.27,3.25c-.4.15-.81.28-1.3.42l-.06,0H695l-.08,0a24.61,24.61,0,0,1-4.63.84c-.67.06-1.39.09-2.14.09h-.4c-.57,0-1.12,0-1.55-.07h-.14L686,924h0a14.85,14.85,0,0,0-3.54-2l-.36-.14-.36.14-.05,0-.23.09c-.56.22-1.11.47-1.66.72h0l-.2.1a42.08,42.08,0,0,0-11.85,8.33l-.37.37.09.52a15.45,15.45,0,0,0,4.87,8.75,11.72,11.72,0,0,1-2.58-1.16l-.14-.07a14.67,14.67,0,0,1-1.73-1.29,12.66,12.66,0,0,1-2.25-2.59v0l-.06-.1a12.36,12.36,0,0,1-1.62-3.75l0-.23a10.94,10.94,0,0,1-.2-1.13l-.18-1.48-1.3.73a31.08,31.08,0,0,0-15.3,20.63,30.47,30.47,0,0,0-.7,6.57,29.61,29.61,0,0,0,.17,3.25,30.61,30.61,0,0,0,1.25,6.1l.07.23.16.17c.61.63,1.14,1.15,1.66,1.63a41.89,41.89,0,0,0,4.56,3.73c1,.72,2,1.39,3.07,2l.25.13h0l.1.05a41,41,0,0,0,7.68,3.4c.4.13.8.26,1.22.38l.22.07a17.09,17.09,0,0,1,1.4,3.91l0,.07v0a20,20,0,0,1,.38,2.69c0,.35,0,.7,0,1.06v.19a16.94,16.94,0,0,1-.37,3.36l0,.1a12.54,12.54,0,0,1-.33,1.24,17.35,17.35,0,0,1-1.32,3.27c-.3.54-.62,1.06-1,1.57a16.8,16.8,0,0,0,1-5.61,15.09,15.09,0,0,0-.31-3l0-.23-.15-.19a38.39,38.39,0,0,1-2.78-4l-.17-.28-.3-.13-.11,0-.22-.09-.31-.13-.32.08a37.14,37.14,0,0,0-7.91,2.92h0l-.22.12-1,.56c-.93,0-1.86-.11-2.78-.2-.36-.58-.74-1.16-1.15-1.76a45.12,45.12,0,0,0-4.68-5.78l-.57-.59-.69.44a38.17,38.17,0,0,0-5.94,4.65l-.52-.26-.43.95-.06.15c-.06.12-.11.23-.16.35a34,34,0,0,0-2.63,3.07l-.13.07-.21.15-.11.07a22.91,22.91,0,0,0-7.34,8,21.86,21.86,0,0,0-1.84,4.36c-.14.46-.25.87-.34,1.25a44.42,44.42,0,0,0-4.1,2.51h-.57l-.12.87a68.26,68.26,0,0,0-.59,8c0,.35,0,.7,0,1.06,0,1.08,0,2.05.07,3l0,.56.49.27a40.06,40.06,0,0,0,4.18,2,18.72,18.72,0,0,0-3.36-.69c-.53-.06-1-.1-1.45-.12a35.23,35.23,0,0,1-4-5.91c-.15-.25-.27-.49-.4-.75s-.35-.7-.52-1.08a38.39,38.39,0,0,1-1.5-3.66h0l-.05-.15a36,36,0,0,1-1.85-11.09l0-1-1,.06-1,.1c-2,.19-4,.47-6,.81l-.8.13,0,.81c-.06,1.35-.09,2.77-.1,4.32,0,.48,0,1,0,1.44,0,1.78,0,3.58.09,5.36-.36-.27-.7-.55-1-.83v0l-.34-.29a19.43,19.43,0,0,1-2.44-2.53c.09-1.46.23-2.92.42-4.36.08-.63.16-1.25.26-1.88.2-1.24.43-2.49.71-3.74a66,66,0,0,1,2.26-8c.73-.21,1.51-.42,2.41-.65,1.68-.44,3.47-.83,5.31-1.16l.74-.14.08-.74c.13-1.26.29-2.56.49-4a86.62,86.62,0,0,1,2.29-10.62c.58,0,1.17-.08,1.77-.08h.47l.67,0a21.22,21.22,0,0,1,5,.86,19.8,19.8,0,0,1,3,1.11,21.69,21.69,0,0,1,3.18,1.81l.28.19.34,0a12.18,12.18,0,0,0,3.73-.81,11.44,11.44,0,0,0,1.92-1,12.12,12.12,0,0,0,4.12-4.15l.15-.24v-.37l0-.09a29.46,29.46,0,0,1-.44-3.49l0-.58c0-.58,0-1.13,0-1.67,0-.11,0-.23,0-.35v-.06a32.45,32.45,0,0,1,.47-5.09v0c0-.06,0-.11,0-.13a31,31,0,0,1,1-4.12h0c.39-1,.77-2,1.18-3.07l.07-.17v0c.18-.51.36-1,.53-1.53l.14-.13v-.27a82.08,82.08,0,0,0,4.09-23c0-1,.07-2,.07-2.94v-.11c0-.62,0-1.26,0-1.87a80.74,80.74,0,0,0-1.17-12.12v-.13l-.05-.25c0-.18-.06-.36-.1-.54-.15-.88-.33-1.73-.47-2.37a81.37,81.37,0,0,0-2.87-10.18,51.84,51.84,0,0,1-.29-5.43c0-.22,0-.45,0-.68l0,0V885a38.3,38.3,0,0,0,1.48-5,37.09,37.09,0,0,0,.88-8c0-.31,0-.62,0-.93l1.3-4-1.44,1.48a35.76,35.76,0,0,0-.62-4.11,37.53,37.53,0,0,0-1.13-4.22l-.32-.95-1,.33a54.37,54.37,0,0,0-14,7.13c-.93.66-1.84,1.34-2.72,2.05a55.69,55.69,0,0,0-8.21,8.11,74.66,74.66,0,0,0-13.54,13.92l-.26.26-.11.12,0,0c-.17.18-.35.36-.51.55l0,0,0,0c-.19.22-.39.43-.57.66s-.33.37-.48.56l-.15.18c-.54.65-1,1.31-1.47,2a32.82,32.82,0,0,0-4.8,10.14l-.21.49-.37,1,.2.06a33.38,33.38,0,0,0-.81,7.32c0,.43,0,.86,0,1.29-.15-.26-.3-.52-.44-.78l-.14-.25h0l-.12-.22a42.23,42.23,0,0,1-3.85-10l-.4-1.63L583,903.61c-1.5,1.34-2.88,2.62-4.23,3.91l-.24.21-.1.09-.37.34,0,.49a18.38,18.38,0,0,0,.7,3.65h0l0,.14a18.7,18.7,0,0,0,3.37,6.41l.2.25.32.09.38.1-.65.59c-.25.22-.51.43-.78.64-.32-.07-.64-.16-1-.24l-.8-.21a50.44,50.44,0,0,1-7.9-2.9,68.56,68.56,0,0,1-2.7-10V907l-.13-.23a22.4,22.4,0,0,1-3-11.29,22,22,0,0,1,.11-2.3v-.28l0-.15c-.18-.54-.35-1.07-.51-1.63a87,87,0,0,1,1.36-53.47,86.82,86.82,0,0,1,28.95-39.8l.06,0,0,0a17.49,17.49,0,0,0,3.29-19.85,17.47,17.47,0,0,0-12.16-9.53,143.8,143.8,0,0,0-48.61-8.39c-4,0-8.08.17-12.08.51a144.36,144.36,0,0,0-29,5.42h-.27l-.12.11c-4,1.21-8,2.59-11.82,4.11l-1.72.51-.4.12-1.61.31-1.57.25H480l-.21,0h-.15l-1,.14c-.43.06-.86.11-1.31.15s-1,.09-1.45.13h-.11l-1.4.08c-.45,0-.92,0-1.4.06l-1.76,0-1.69,0H469l-1.55-.08c-.58,0-1.16-.08-1.73-.12l-.6-.06-.8-.09-.77-.09-.44-.06H463c-.55-.07-1.11-.16-1.67-.25a2.41,2.41,0,0,1-.37-.07h-.06c-.39,0-.78-.13-1.19-.21l-.49-.1-.08,0-.51-.1h0l-.84-.18-.49-.12h-.08l-.33-.08-.1,0-.35-.09-.31-.07-.08,0-.18,0-.72-.2-1.05-.3c-.66-.2-1.34-.41-2-.64s-1.39-.48-2-.71c-.46-.17-.9-.34-1.31-.51l0,0-.17-.06-.08,0,0,0-.07,0,0,0h0l-.13,0h0l0,0-.09,0c-.57-.22-1.14-.48-1.68-.72h0l-.15-.07-.26-.12c-.49-.22-.93-.43-1.36-.65l-.12-.06-.3-.15h0l-.08,0h0c-.49-.25-1-.52-1.56-.82s-1.23-.69-1.81-1-1.19-.71-1.78-1.09c-.95-.61-1.91-1.27-2.94-2a60.57,60.57,0,0,1-17.08-19.18l-.05-.08-.06-.07a74.91,74.91,0,0,1-16.15-33.59l0-.11,0-.11a83.33,83.33,0,0,1-7.36-34.44v-.73a83.36,83.36,0,0,1,.55-8.9,58.14,58.14,0,0,1,2.47-10.63,70.11,70.11,0,0,0,3.64,20.78,69.32,69.32,0,0,0,4.8,11.14,47.59,47.59,0,0,0,5,10.42h0l.16.24c.37.57.77,1.15,1.22,1.78s.71,1,1.08,1.45l0,0c.1.14.21.27.33.41a1.3,1.3,0,0,0,.15.2c.31.39.63.77,1,1.15.52.61,1.07,1.22,1.67,1.87l0,0h0c.45.46.89.9,1.36,1.35s.87.83,1.31,1.22l.07.06.1.1.27.24,1.15,1,.08.06.06.06.67.53c.28.23.56.44.83.64l.11.08c.31.24.6.45.84.62l.76.53.23.16,3.8,2.62-2.38-4c-.77-1.29-1.49-2.6-2.2-4a66.69,66.69,0,0,1-4.2-49.71l.05-.17v-.17c0-.21,0-.42,0-.63a47.85,47.85,0,0,1,1.37-11.42,49,49,0,0,1,10.87-20.71A70.26,70.26,0,0,0,430,631.1c0,.1,0,.21,0,.31s0,.23-.05.34a71.24,71.24,0,0,0-.73,10.18,70.43,70.43,0,0,0,13.2,41.24l2.37,3.31-.56-4a103.7,103.7,0,0,1-1-14.52A103.76,103.76,0,0,1,460.13,611c1.81-2.78,3.82-5.55,6-8.24q2.1-2.6,4.35-5.07c-.71,1.18-1.39,2.37-2,3.59a64.62,64.62,0,0,0-2.95,6.49,63.61,63.61,0,0,0-2.95,10,64.55,64.55,0,0,0,.95,30.21l.57,2.07,1.22-1.77a104.4,104.4,0,0,1,40.81-35.11c1.13-.55,2.18-1,3.21-1.47,1.71-.76,3.46-1.47,5.23-2.14-.82.75-1.61,1.49-2.37,2.24-1.11,1.08-2.12,2.11-3.1,3.14-2.07,2.18-4,4.41-5.77,6.62A109,109,0,0,0,488,647l1.76.93a86.31,86.31,0,0,1,20.66-22.41c1.69-1.29,3.43-2.52,5.16-3.64,1.89-1.25,3.9-2.44,6-3.56h0l.22-.12a86.93,86.93,0,0,1,15.67-6.53,86,86,0,0,1,19-3.55h0l.74,0a153.18,153.18,0,0,0-13.76,9.12c-3.82,2.83-7.61,5.94-11.28,9.23-2.62,2.36-5.17,4.81-7.56,7.3l-2.68,2.77,3.69-1.12c3.62-1.1,7.36-2.11,11.13-3,5-1.15,10.06-2.09,15.1-2.8,5.48-.77,11.13-1.28,16.8-1.52l.36,0-.47.27a106.55,106.55,0,0,0-23.5,17.81c-1.34,1.34-2.57,2.65-3.78,4l-4,4.5,5.25-3c1.42-.8,2.89-1.55,4.37-2.24a67.41,67.41,0,0,1,12.5-4.46,68.56,68.56,0,0,1,10.89-1.81l1.69-.13c-.75.28-1.5.57-2.24.9A36.24,36.24,0,0,0,552,660.88l-1.45,2.92,2.84-1.61a99.1,99.1,0,0,1,9.63-4.78c2.16-.93,4.35-1.79,6.51-2.55a102.52,102.52,0,0,1,16.06-4.26,104,104,0,0,1,18-1.67A168.32,168.32,0,0,0,589.8,659.2L587.58,661l2.88-.07c1.11,0,2.33,0,3.73,0a173.69,173.69,0,0,1,21.16,1.29c3.49.41,7,.94,10.54,1.6a169.45,169.45,0,0,1,19.84,4.88c.89.27,1.93.6,3,.94s2.1.71,3.14,1.08,2.09.74,3.14,1.13l.46.18.19.07h0l0,0,.19.08h0l.06,0,.22.08c.65.24,1.29.49,1.93.75A84.54,84.54,0,0,0,693,689l1.19.24V688a131,131,0,0,1,14.41-59.72l.36-.17.43-.19.13-.44c.23-.77.46-1.53.7-2.3l0-.16h0a198.64,198.64,0,0,1,9.13-24c1.1-2.45,2.31-5,3.59-7.48,2.54-5,5.31-10,8.24-14.8h0l.06-.1c.74-1.22,1.55-2.5,2.53-4l.13-.06.52-.22.08-.57a43,43,0,0,1,10-22.5l.12-.14.06-.17a44.63,44.63,0,0,1,9.14-15.26c.29-.33.6-.65.91-1,.28.76.53,1.51.76,2.25l-.46.48,1,.66,2.26,2.27-.6-3.08c1.15-2.73,2.15-5.34,3.07-8l0-.14c.5-1.42,1-2.82,1.34-4a143.73,143.73,0,0,0,6.68-43.47A146,146,0,0,0,768,466a103.45,103.45,0,0,0-2.63-51.42A98.81,98.81,0,0,1,791.68,475h0l0,.44c.15,2.09.23,4.32.23,6.62a99,99,0,0,1-5.16,31.65l1.84.76a142,142,0,0,0,14.57-63.06c0-1.63,0-3.42-.1-5.44.38-1.75.74-3.46,1-5.09a177.38,177.38,0,0,0,1.66-55.18m-1.56-5-.15.05a176.66,176.66,0,0,1,2.12,27.3,173.86,173.86,0,0,1-3.06,32.65q-.49,2.61-1.07,5.18h0c.06,1.84.11,3.68.11,5.53a142.06,142.06,0,0,1-14.46,62.62,100.3,100.3,0,0,0,5.21-32q0-3.37-.23-6.69v0A99.84,99.84,0,0,0,763,410.68a102.37,102.37,0,0,1,4,55.23h0a145.5,145.5,0,0,1,.85,15.7,142.23,142.23,0,0,1-6.64,43.17c-.44,1.38-.88,2.76-1.37,4.12h0c-1,2.79-2,5.52-3.17,8.22a.37.37,0,0,1,0,.14l-.08-.06a.12.12,0,0,0,0-.08,45,45,0,0,0-1.48-4.28c-.71.68-1.4,1.38-2,2.1a45.51,45.51,0,0,0-9.34,15.59,44.09,44.09,0,0,0-10.25,23l-.41.18q-1.38,2.13-2.71,4.29h0q-4.47,7.29-8.35,15c-1.25,2.47-2.46,5-3.61,7.51a202.88,202.88,0,0,0-9.21,24.32h0c-.25.77-.48,1.54-.71,2.31-.23.1-.46.21-.68.33h0A133,133,0,0,0,693.19,688a83.07,83.07,0,0,1-34.6-15.79c-.69-.28-1.38-.55-2.09-.81l-.37-.15,0,0-.27-.1h0l-.5-.19c-1-.39-2.1-.77-3.14-1.14s-2.11-.73-3.17-1.08-2-.64-3-1a172.71,172.71,0,0,0-19.94-4.91q-5.25-1-10.62-1.61a175.67,175.67,0,0,0-21.27-1.29c-1.25,0-2.5,0-3.75,0a164.73,164.73,0,0,1,14.85-11c.21-.15.44-.3.67-.44l-1.38-.64h-.79a105.22,105.22,0,0,0-18.41,1.68,103.6,103.6,0,0,0-16.23,4.31q-3.35,1.17-6.57,2.57a102.35,102.35,0,0,0-9.73,4.83,35,35,0,0,1,28-19.23c-1.53-.11-3.09-.16-4.65-.16q-3,0-6,.26a69.45,69.45,0,0,0-23.73,6.36q-2.28,1.05-4.44,2.28c1.21-1.36,2.44-2.67,3.73-4A105.59,105.59,0,0,1,569,629.22c1.4-.8,2.82-1.55,4.27-2.27-1.58,0-3.14.07-4.71.15q-8.55.36-16.87,1.53-7.72,1.08-15.19,2.81-5.68,1.32-11.21,3,3.63-3.75,7.51-7.25c3.6-3.22,7.33-6.29,11.22-9.17a150.69,150.69,0,0,1,14.67-9.64c.73-.43,1.46-.84,2.19-1.25a1.51,1.51,0,0,0-.09-.18c-1.49,0-3,.1-4.41.2h0a87.3,87.3,0,0,0-35.15,10.2h0q-3.22,1.73-6.25,3.72c-1.79,1.16-3.54,2.39-5.23,3.68a87.8,87.8,0,0,0-20.89,22.67,108.25,108.25,0,0,1,15.18-25.21q2.73-3.4,5.73-6.56c1-1.06,2-2.09,3.06-3.11,2-1.95,4.07-3.81,6.21-5.6a100.75,100.75,0,0,0-10.16,3.86c-1.09.47-2.17,1-3.25,1.49a105.28,105.28,0,0,0-41.19,35.44,63.44,63.44,0,0,1-.94-29.74,61.53,61.53,0,0,1,5.81-16.22,63.48,63.48,0,0,1,9.67-13.7,105.85,105.85,0,0,0-13.67,14.09q-3.21,4-6,8.32a105.21,105.21,0,0,0-16.08,72.11,69.56,69.56,0,0,1-13-40.66,72.24,72.24,0,0,1,.71-10c0-.22.08-.44.1-.66a68.41,68.41,0,0,1,3.9-14.58,50.49,50.49,0,0,0-14.32,24.48,49.3,49.3,0,0,0-1.39,11.66v.67a67.72,67.72,0,0,0,4.27,50.46c.69,1.39,1.44,2.74,2.23,4.07-.31-.22-.65-.44-1-.67l-.81-.6c-.32-.23-.63-.46-.94-.72s-.44-.34-.65-.52l-.16-.12c-.38-.31-.75-.62-1.11-.94l-.35-.32-.08-.06c-.44-.39-.86-.8-1.3-1.21L418,701.48c-.56-.6-1.1-1.21-1.65-1.84l-.93-1.12-.11-.14h0c-.14-.16-.25-.31-.37-.47l0,0c-.36-.46-.71-.93-1.06-1.41s-.8-1.15-1.19-1.74h0a46,46,0,0,1-5.07-10.49v0a67.53,67.53,0,0,1-4.79-11.06,69.37,69.37,0,0,1-3.6-22.2c0-1.3,0-2.59.1-3.87a60.51,60.51,0,0,0-4.54,16.1,81.67,81.67,0,0,0-.56,9v.74a84.77,84.77,0,0,0,7.44,34.85,75.84,75.84,0,0,0,16.37,34,61.21,61.21,0,0,0,17.38,19.5c1,.71,2,1.39,3,2,.6.38,1.2.75,1.81,1.11s1.21.7,1.83,1,1.1.59,1.67.87l.08,0,.42.21c.46.24.94.47,1.42.69l.2.08.06,0c.61.27,1.21.54,1.84.79a.64.64,0,0,0,.19.08l.1,0,.08,0,.11,0,0,0c.5.21,1,.41,1.52.6.67.25,1.35.49,2,.72s1.35.44,2,.65l1,.3.77.21.27.07.66.16.46.11.54.13.88.19.64.13.5.1c.4.08.8.16,1.21.22l.44.08c.56.09,1.12.18,1.69.25l.48.07,1.58.18.62.06c.59.05,1.19.1,1.77.13l1.57.08h.58l1.69,0c.6,0,1.19,0,1.79,0l1.44-.06,1.41-.09h.07c.5,0,1-.08,1.52-.14s.89-.09,1.33-.15l1-.14h0l.38-.05,1.58-.26,1.69-.32,2.21-.65q5.88-2.34,12-4.17h0a142.65,142.65,0,0,1,29-5.43q5.94-.49,12-.5A143.07,143.07,0,0,1,587,769.28a16.08,16.08,0,0,1,4.87,1.84,16.56,16.56,0,0,1,4.66,4,16.22,16.22,0,0,1,2,3.16,16.6,16.6,0,0,1,1.63,7.15A16.43,16.43,0,0,1,595.45,797a87.52,87.52,0,0,0-22.18,25,85.81,85.81,0,0,0-7.1,15.22,87.95,87.95,0,0,0-1.38,54.08c.17.56.34,1.11.52,1.66v0a23.81,23.81,0,0,0-.12,2.4,23.24,23.24,0,0,0,3.17,11.79h0a70,70,0,0,0,2.89,10.68,52,52,0,0,0,8.44,3.13l.81.22c.48.12,1,.24,1.44.34h0a12.53,12.53,0,0,0,1.21-1,13.28,13.28,0,0,0,1.1-1c.29-.31.58-.62.84-1a19.45,19.45,0,0,1-2.07-.43,17.67,17.67,0,0,1-3.19-6.07h0a17,17,0,0,1-.7-3.59,3.18,3.18,0,0,1,.33-.3q2.07-2,4.23-3.91a42.64,42.64,0,0,0,3.94,10.27h0c.08.17.18.33.27.5a41.94,41.94,0,0,0,2.36,3.78l.27-.11a31.34,31.34,0,0,1-.34-4.68,32.31,32.31,0,0,1,1-8l-.1,0,.24-.52a31.5,31.5,0,0,1,4.67-9.92c.44-.65.92-1.28,1.42-1.89.21-.24.41-.49.62-.72s.36-.43.55-.64h0l0,0,.54-.58.39-.38a73.65,73.65,0,0,1,13.5-13.88,54.76,54.76,0,0,1,8.13-8c.87-.7,1.77-1.37,2.67-2a53.7,53.7,0,0,1,13.72-7,34,34,0,0,1,1.11,4.1,37.37,37.37,0,0,1,.73,6.2h0s0,.06,0,.1c0,.36,0,.71,0,1.07a36.84,36.84,0,0,1-2.36,12.88h0s0,0,0,0c0,.35,0,.71,0,1.06a50.19,50.19,0,0,0,.32,5.66v0a83,83,0,0,1,2.87,10.14c.17.78.33,1.56.46,2.35.06.26.1.53.14.79v0A78.59,78.59,0,0,1,642,917c0,.61,0,1.24,0,1.85v.11c0,1,0,1.94-.06,2.9a81.13,81.13,0,0,1-4.1,22.91h0s0,0,0,0a1.09,1.09,0,0,0,0,.17c-.2.57-.39,1.14-.6,1.7v0c-.38,1-.77,2.06-1.17,3.06,0,0,0,0,0,0a32.73,32.73,0,0,0-1.08,4.31.85.85,0,0,0,0,.22,33.21,33.21,0,0,0-.48,5.22v.42c0,.78,0,1.55.08,2.31h0a28.72,28.72,0,0,0,.46,3.61h0a11.11,11.11,0,0,1-3.79,3.8,10.43,10.43,0,0,1-1.77.88,11,11,0,0,1-3.42.74,21.35,21.35,0,0,0-3.33-1.89,20,20,0,0,0-3.09-1.16,21.86,21.86,0,0,0-5.2-.9l-.72,0h-.47a21.26,21.26,0,0,0-2.54.15,84.69,84.69,0,0,0-2.5,11.4c-.19,1.34-.36,2.68-.5,4-1.82.33-3.63.72-5.4,1.18-1,.25-2,.51-2.92.8h0a68.36,68.36,0,0,0-2.47,8.56c-.28,1.25-.52,2.51-.71,3.79-.11.64-.19,1.27-.27,1.92-.21,1.58-.36,3.18-.46,4.8a21.9,21.9,0,0,0,2.81,3h0a22.83,22.83,0,0,0,3.13,2.32q-.17-3.63-.17-7.3v-1.42c0-1.44,0-2.87.1-4.3,2-.33,4-.6,6-.8.31,0,.63-.07.94-.09a37.3,37.3,0,0,0,1.9,11.39h0a38.32,38.32,0,0,0,1.6,3.92c.16.38.35.75.54,1.11a8.56,8.56,0,0,0,.42.79,35.58,35.58,0,0,0,4.39,6.4,15.25,15.25,0,0,1,1.8.12,17.7,17.7,0,0,1,3.19.66,1,1,0,0,0,.29,0,1,1,0,0,0,.78-.38v0a1,1,0,0,0-.4-1.48q-2.09-.92-4.08-2c0-1-.07-2-.07-2.93v-1a67.76,67.76,0,0,1,.59-7.86h0a44,44,0,0,1,4.64-2.84h0a15,15,0,0,1,.42-1.63A21,21,0,0,1,626,995.4a22,22,0,0,1,7-7.65c.11-.06.19-.13.29-.19l.27-.16h0a35.08,35.08,0,0,1,2.81-3.27,6.17,6.17,0,0,1,.29-.65,1.06,1.06,0,0,0,.25.09,36.87,36.87,0,0,1,6.25-5,42.84,42.84,0,0,1,4.58,5.65c.48.7.94,1.41,1.38,2.14q1.79.2,3.6.27h0c.42-.24.86-.47,1.29-.7h0A36.61,36.61,0,0,1,662,983l.33.14a40.19,40.19,0,0,0,2.85,4.08,14.06,14.06,0,0,1,.29,2.85,13.79,13.79,0,0,1-.35,3.16,15.07,15.07,0,0,1-6.05,9.2,18.38,18.38,0,0,0,8.23-7.85,18.77,18.77,0,0,0,1.42-3.46c.14-.46.25-.93.35-1.4v0a18,18,0,0,0,.4-3.55v-.2c0-.38,0-.75,0-1.12A17.66,17.66,0,0,0,669,982l0-.12a18.45,18.45,0,0,0-1.69-4.52l-.64-.18-1.17-.37a39.62,39.62,0,0,1-7.52-3.33,3.07,3.07,0,0,1-.31-.17h0c-1-.6-2-1.25-3-1.94a39.79,39.79,0,0,1-4.44-3.64c-.56-.52-1.1-1.05-1.63-1.6a31,31,0,0,1-1.21-5.9c-.1-1-.16-2.09-.16-3.15a30,30,0,0,1,15.48-26.33c.06.42.14.83.23,1.23,0,0,0,0,0,0a13.36,13.36,0,0,0,1.79,4.29s0,0,0,.07a13.48,13.48,0,0,0,2.48,2.85,13.72,13.72,0,0,0,2,1.47h0a13.64,13.64,0,0,0,7,1.91h.32A14.5,14.5,0,0,1,668.42,932,41.56,41.56,0,0,1,680,923.87h0c.59-.28,1.21-.55,1.81-.8l.27-.1a14.1,14.1,0,0,1,3.55,2h0l0,0a4,4,0,0,0,.52.05c.52,0,1.06.07,1.6.07h.4c.75,0,1.5,0,2.23-.1a24.46,24.46,0,0,0,4.81-.87,1.34,1.34,0,0,0,.27-.07c.46-.13.92-.27,1.38-.44a25.59,25.59,0,0,0,6.5-3.38.69.69,0,0,0,.22-.16l.21.22h0a21.83,21.83,0,0,0,5.21,3.88h0c.5.27,1,.52,1.52.74a22.26,22.26,0,0,0,9.11,1.93l1,0h0c.52.34,1,.7,1.54,1.08l.94.71a44.59,44.59,0,0,1,3.37,2.94c.39.37.77.76,1.16,1.16a18.6,18.6,0,0,1-.41,2c-.08.3-.18.61-.27.9a21.24,21.24,0,0,1-3.66,7,20.51,20.51,0,0,1-3.52,3.51c.54-.26,1-.54,1.54-.83a23.32,23.32,0,0,0,7-6.35,19.88,19.88,0,0,0,1.94-3.18c.13-.22.23-.45.34-.68l.18-.38A22.91,22.91,0,0,0,732.5,929q-.69-1.86-1.5-3.66l-.29-.62c-.65-1.39-1.35-2.76-2.11-4.09a55.43,55.43,0,0,0-3.33-5.21,46.38,46.38,0,0,1-8.56-6.49c-.71-.68-1.4-1.38-2.08-2.1-.36-.4-.71-.8-1-1.21a41.48,41.48,0,0,1-2.85-3.64h0c-.3-.41-.58-.82-.85-1.24a17.29,17.29,0,0,1,1.41-3.47,17.46,17.46,0,0,1,2.61-3.65c.14-.15.27-.3.43-.45a25.1,25.1,0,0,1,12.19,9,16.43,16.43,0,0,1,5.63,1.09,16.67,16.67,0,0,1,9,8,5.68,5.68,0,0,1,.28.55,16.4,16.4,0,0,1,.89,2.4l.23-.38,0,0a34,34,0,0,0,3.13-7v0h0a26.52,26.52,0,0,0,3.35-7,27.33,27.33,0,0,0,1.17-7.89,27,27,0,0,0-.54-5.35c-.11-.55-.23-1.09-.38-1.62a25.38,25.38,0,0,0-1.73-4.67,26.1,26.1,0,0,0-2.86-4.7c-.12-.42-.24-.84-.35-1.27a31,31,0,0,1-.89-7.39,28.72,28.72,0,0,1,.14-2.95h0a29.18,29.18,0,0,1,1.19-6,38,38,0,0,0,9.84,16.31c.89.87,1.81,1.69,2.77,2.47q3.38.32,6.81.32c1.08,0,2.14,0,3.21-.08a72.26,72.26,0,0,0,19.35-3.47,71.49,71.49,0,0,0,7.69-3c.48-.22,1-.45,1.46-.69a73.08,73.08,0,0,0,22.87-17.25,55,55,0,0,0,13.69-8.64,54.47,54.47,0,0,0,8.67-9.47,44.84,44.84,0,0,0-2.55-9,42.37,42.37,0,0,0-1.77-3.88c-.25-.5-.52-1-.79-1.48,0,0,0,0,0,0a53.81,53.81,0,0,0,37.88-20.3l.61-.78a17.7,17.7,0,0,1,5.39-1.4,2.42,2.42,0,0,0,.33-.31,9.38,9.38,0,0,0,2.94-6.84,9.66,9.66,0,0,0-.75-3.73,44.58,44.58,0,0,0-16.71,0l-.88.18a45.21,45.21,0,0,0-4.76,1.31h0a44.14,44.14,0,0,0-9.52,4.56l-.58.39h0a41.22,41.22,0,0,1-13.06,2.1h-.09c-.6,0-1.21,0-1.81,0a54.4,54.4,0,0,1-51.13-14.77,84.09,84.09,0,0,0,14.86-10.08,85.88,85.88,0,0,0,16.58-18.78c.09-.13.17-.27.25-.4A84.71,84.71,0,0,0,827.15,723a59.8,59.8,0,0,0,4.14-10.4l.11-.35c.33-1.13.62-2.28.87-3.44a59.88,59.88,0,0,0,1.54-13.6v-.12a97.74,97.74,0,0,1,30.77-55h0a61.37,61.37,0,0,0,19.91-13.9c.46-.49.94-1,1.38-1.51a60.63,60.63,0,0,0,11.18-18,36.77,36.77,0,0,1-22.85,13.51,37.27,37.27,0,0,1-12.9-.15q3.16-.7,6.23-1.67a77.93,77.93,0,0,0,32.06-19.54h0c1.28-1.28,2.51-2.62,3.69-4a74.74,74.74,0,0,0,5-6.39q1.28-1.85,2.46-3.76A78.67,78.67,0,0,0,916.17,574a70.08,70.08,0,0,1-9.5,7.5l-1.75,1.13-.13.07c-1.1.68-2.21,1.33-3.37,1.95a70.12,70.12,0,0,1-32.86,8.5,111.53,111.53,0,0,0,27.09-19.07c1.27-1.21,2.52-2.45,3.73-3.72l.43-.48c.55-.57,1.09-1.14,1.59-1.72A111.2,111.2,0,0,0,921.79,536c1.11-2.7,2.13-5.45,3-8.26q-1.65,2.37-3.5,4.61a76.69,76.69,0,0,1-25.75,20.38c-.68.35-1.39.68-2.1,1-.92.41-1.85.81-2.79,1.18A75.61,75.61,0,0,1,869.81,560a82.61,82.61,0,0,0,16.11-8.3c1.48-1,2.91-2,4.33-3.1q2.54-1.93,4.94-4.08h0A81.8,81.8,0,0,0,922.65,485a78.37,78.37,0,0,0-10.25,10.68s0,0,0,0c-1.23,1.51-2.36,3.06-3.46,4.66a75.93,75.93,0,0,0-6.85,12.24v0a74.77,74.77,0,0,1-26.93,21c-1.82.84-3.67,1.6-5.57,2.29a130.54,130.54,0,0,0,41-116.94A118.66,118.66,0,0,1,842.5,525.05a111.39,111.39,0,0,0,45.79-108.21,123.54,123.54,0,0,1-37.39,56.29,127.46,127.46,0,0,0,.64-88.71,79.12,79.12,0,0,1-5.64,28,31.57,31.57,0,0,1-2.19,10.23h0a148,148,0,0,1-32,86.68,150,150,0,0,0,5.46-15.61,147.67,147.67,0,0,0,5.75-41c0-2.89-.08-5.77-.25-8.62-.06-.86-.11-1.71-.17-2.57a147,147,0,0,0-18.3-60.86Z"/></g><g class="a"><path class="b" d="M549.14,1080.2a31.4,31.4,0,0,1-3.5-.61h-.11l-.48-.11-1.63-1.26c-.73-1.89-1.36-3.75-1.88-5.53.71-1.29,1.38-2.46,2.06-3.57l.32-.28c.47-.44.93-.84,1.39-1.25,1.57-1.38,3.24-2.79,5.13-4.32.9-.73,1.8-1.45,2.71-2.15l.78-.6c1.14-.87,2.47-1.88,3.81-2.83,1.92-1.42,3.92-2.8,5.92-4.13l1.4-.93,1.67-.09c.52,0,1,0,1.55-.06,1,0,1.94,0,2.9,0h.48l.08-.47c0-.52.07-1,.13-1.55v-.1c0-.3.06-.56.09-.81a67.27,67.27,0,0,1,7.41-5.14c.62.66,1.24,1.38,1.82,2.12.16.19.29.36.42.54a7.52,7.52,0,0,1,.51.69v.67l.74-.4.34-.19c1.33-.79,2.67-1.6,4.09-2.5l.13-.07c2.91-1.82,5.83-3.75,8.65-5.73l.38-.26,1.41-1c.42-.3.84-.6,1.26-.92l0,0,0,0,.47-.51.08-.08c.41-.45.82-.88,1.25-1.32a34.52,34.52,0,0,0,12.66-8.12c.37-.25.7-.45,1-.66l.3-.19c2.33-1.47,4.78-2.94,7.28-4.36s5.08-2.8,7.61-4.07c.51-.39.92-.73,1.33-1.08l.09-.08.05-.11c.51-1.23,1-2.53,1.47-3.85,1.68-.77,3.34-1.48,4.95-2.11q.83-.33,1.65-.63c.53.72,1,1.46,1.53,2.2l.07.1c.49.73.93,1.4,1.33,2.07-1.85,1.76-3.69,3.43-5.47,5-1.83,0-3.75.09-5.71.25l-.14,0-.13.08c-1,.75-2,1.48-3,2.21l-.3.21a188.28,188.28,0,0,1-19.68,12.34l-.09,0-.15.18a177.75,177.75,0,0,0-18,12.85c-1,.85-2.06,1.7-3.07,2.57-.53.44-1.06.89-1.59,1.36l-.29.26.18.34c.32.6.6,1.22.88,1.84.17.38.33.77.49,1.17l-.72.56-.12,0-.07.12-1.56,1.22c-1.2.93-2.33,1.78-3.45,2.6a4.44,4.44,0,0,0-2.57-1.23l-.19,0h-.1l-1.48.23-.17,0-.12.13-2,2.33c-.6.72-1.2,1.46-1.79,2.19-1,1.21-1.87,2.31-2.66,3.36l-.19.14c-.94.73-1.84,1.42-2.75,2.1l-.15.1c-2.39,1.8-4.9,3.57-7.47,5.27-3,2-6.19,4-9.46,5.87Z"/><path d="M639.23,1010.69c.45.62.89,1.25,1.3,1.87l.06.09h0c.4.59.76,1.16,1.1,1.7-1.68,1.6-3.36,3.13-5,4.56-1.78,0-3.64.1-5.52.25h-.3l-.27.21c-1,.75-2,1.48-3,2.18l-.17.12-.15.11a186.7,186.7,0,0,1-19.62,12.3l-.17.1-.13.14,0,0a177.28,177.28,0,0,0-18,12.86l0,0c-.94.76-1.93,1.59-3,2.53-.6.5-1.12.94-1.61,1.37l-.58.52.36.7c.27.51.55,1.09.86,1.8.13.28.24.55.35.81l-.42.32a1.3,1.3,0,0,0-.23.18l-1.47,1.16-.06,0c-1.07.84-2.1,1.62-3.11,2.36a5,5,0,0,0-2.54-1.09h-.42l-1.49.24-.35,0-.24.28c-.67.77-1.34,1.54-2,2.33s-1.21,1.46-1.8,2.19c-1,1.18-1.84,2.27-2.63,3.32l-.11.08,0,0,0,0c-.9.7-1.79,1.38-2.58,2h0l-.27.2c-2.38,1.79-4.89,3.56-7.45,5.26-3,2-6.08,3.9-9.28,5.76a33.46,33.46,0,0,1-3.37-.58l-.12,0h0l-.33-.07h0c-.45-.34-.94-.71-1.44-1.11-.68-1.76-1.27-3.5-1.76-5.16.65-1.18,1.27-2.27,1.91-3.31l.28-.25,1.38-1.23c1.56-1.38,3.23-2.78,5.1-4.3.9-.73,1.81-1.44,2.7-2.15l.39-.3.39-.29c1.14-.87,2.47-1.88,3.81-2.83,1.93-1.42,3.91-2.8,5.91-4.12l1.27-.85,1.55-.08c.5,0,1,0,1.54-.06.86,0,1.8,0,2.88,0h1l0-.94c0-.58.08-1.08.13-1.52v-.06h0l0-.07v-.07c0-.17,0-.34.05-.51a69,69,0,0,1,6.85-4.77c.52.58,1,1.18,1.54,1.82l.38.49h0l0,.06h0c.12.15.24.31.35.47v1.36l1.48-.8.2-.11.16-.1q1.95-1.14,4-2.42h0l.24-.15c2.92-1.82,5.84-3.75,8.68-5.74l.36-.25c.48-.33,1-.66,1.43-1l1.27-.92.08-.06.07-.08c.17-.19.36-.39.55-.58.38-.41.76-.82,1.16-1.22a35.12,35.12,0,0,0,12.68-8.16q.48-.33,1-.63l.3-.19c2.31-1.47,4.75-2.94,7.26-4.36s5.06-2.78,7.58-4.05l.09,0,.08-.06c.43-.34.85-.69,1.26-1l.19-.15.09-.22c.49-1.17,1-2.41,1.41-3.69,1.63-.74,3.18-1.4,4.73-2l1.28-.49m.36-1.2c-.67.24-1.34.5-2,.76q-2.62,1-5.16,2.21c-.48,1.36-1,2.71-1.54,4-.4.34-.8.68-1.23,1q-3.85,1.95-7.63,4.08c-2.46,1.4-4.91,2.86-7.29,4.38-.46.29-.92.57-1.38.88h0a33.62,33.62,0,0,1-12.6,8.07c-.46.46-.9.93-1.33,1.4l-.57.6c-.41.31-.83.61-1.25.91-.6.43-1.2.84-1.79,1.25q-4.24,3-8.62,5.71h0c-1.38.87-2.77,1.72-4.19,2.55l-.33.19,0,0c-.17-.25-.36-.51-.55-.75a.07.07,0,0,0,0,0c-.14-.19-.27-.37-.43-.55-.67-.85-1.38-1.67-2.13-2.45a69.56,69.56,0,0,0-8,5.51h0c0,.32-.08.65-.1,1a.34.34,0,0,0,0,.14c-.07.52-.11,1.05-.13,1.58h-.06c-1,0-1.94,0-2.92,0h0l-1.56.06c-.61,0-1.21.06-1.81.1h0c-.52.33-1,.66-1.52,1q-3,2-5.94,4.14c-1.29.92-2.56,1.88-3.81,2.84l-.79.6c-.9.71-1.82,1.43-2.71,2.16-1.75,1.41-3.46,2.85-5.15,4.33l-1.39,1.24-.38.34h0c-.77,1.26-1.5,2.54-2.21,3.83.58,2,1.25,4,2,5.89h0c.58.47,1.21,1,1.81,1.4h0c.22,0,.45.11.68.15h0a33.18,33.18,0,0,0,3.61.62h0l.18,0c3.27-1.89,6.5-3.88,9.63-6q3.81-2.54,7.5-5.29h0c1-.72,1.92-1.44,2.87-2.19l.26-.2q1.3-1.72,2.7-3.4c.59-.73,1.19-1.46,1.79-2.18s1.32-1.55,2-2.32l1.48-.23h.15a4,4,0,0,1,2.52,1.36.07.07,0,0,1,0,0c1.29-.94,2.56-1.9,3.83-2.88l1.61-1.27.06,0c.29-.21.54-.41.81-.63l.27-.22a1.13,1.13,0,0,0-.08-.24c-.17-.44-.35-.87-.54-1.3-.29-.63-.58-1.25-.9-1.86q.78-.69,1.59-1.35c1-.87,2-1.72,3-2.55h0a176.54,176.54,0,0,1,18-12.86l.15-.17a186.54,186.54,0,0,0,19.73-12.37l.31-.22c1-.73,2-1.46,3-2.21h0c1.94-.16,3.88-.25,5.85-.25,2-1.74,4-3.54,5.92-5.39-.48-.82-1-1.63-1.54-2.43a.35.35,0,0,0-.08-.1c-.55-.85-1.15-1.69-1.77-2.52Z"/></g><g class="a"><polygon class="b" points="662.42 1046.95 660.23 1038.91 666.11 1032.99 674.17 1035.13 676.36 1043.18 670.48 1049.09 662.42 1046.95"/><path d="M666.27,1033.55l7.5,2,2,7.49-5.47,5.5-7.51-2-2-7.49,5.48-5.5m-.31-1.11-6.28,6.32,2.33,8.6,8.62,2.29,6.28-6.33-2.33-8.6-8.62-2.28Z"/><path class="b" d="M668.23,1045.52a4.33,4.33,0,0,1-1.13-.15,4.4,4.4,0,0,1,1.12-8.66,4.33,4.33,0,0,1,1.13.15,4.4,4.4,0,0,1-1.12,8.66Z"/><path d="M668.22,1037.21h0a3.83,3.83,0,0,1,1,.13,3.89,3.89,0,0,1,2.37,1.81,3.85,3.85,0,0,1,.4,3,3.89,3.89,0,0,1-3.77,2.91,3.76,3.76,0,0,1-1-.13,3.9,3.9,0,0,1,1-7.68m0-1a4.91,4.91,0,0,0-1.25,9.65,4.9,4.9,0,1,0,2.51-9.48,4.55,4.55,0,0,0-1.26-.17Z"/></g><g class="a"><polygon class="b" points="594.42 1065.95 592.23 1057.91 598.11 1051.99 606.17 1054.13 608.36 1062.18 602.48 1068.09 594.42 1065.95"/><path d="M598.27,1052.55l7.5,2,2,7.49-5.47,5.5-7.51-2-2-7.49,5.48-5.5m-.31-1.11-6.28,6.32,2.33,8.6,8.62,2.29,6.28-6.33-2.33-8.6-8.62-2.28Z"/><path class="b" d="M600.23,1064.52a4.33,4.33,0,0,1-1.13-.15,4.4,4.4,0,0,1,1.12-8.66,4.33,4.33,0,0,1,1.13.15,4.4,4.4,0,0,1-1.12,8.66Z"/><path d="M600.22,1056.21h0a3.83,3.83,0,0,1,1,.13,3.89,3.89,0,0,1,2.37,1.81,3.85,3.85,0,0,1,.4,3,3.89,3.89,0,0,1-3.77,2.91,3.76,3.76,0,0,1-1-.13,3.9,3.9,0,0,1,1-7.68m0-1a4.91,4.91,0,0,0-1.25,9.65,4.9,4.9,0,1,0,2.51-9.48,4.55,4.55,0,0,0-1.26-.17Z"/></g><g class="a"><polygon class="b" points="529.06 1024.18 529.09 1015.85 536.33 1011.7 543.53 1015.9 543.5 1024.24 536.26 1028.38 529.06 1024.18"/><path d="M536.33,1012.28l6.7,3.91,0,7.76-6.74,3.85-6.7-3.9,0-7.77,6.74-3.85m0-1.15-7.74,4.42,0,8.92,7.7,4.49,7.74-4.43,0-8.92-7.7-4.48Z"/><path class="b" d="M536.19,1024.4a4.41,4.41,0,1,1,4.42-4.39,4.38,4.38,0,0,1-4.42,4.39Z"/><path d="M536.21,1015.09v1a3.88,3.88,0,0,1,2.76,1.15,3.91,3.91,0,1,1-2.77-1.15v-1m0,0a4.91,4.91,0,0,0,0,9.81h0a4.91,4.91,0,0,0,0-9.81Z"/></g></svg>